<?xml version="1.0" encoding="utf-8"?>
<!-- Generator: Adobe Illustrator 24.2.3, SVG Export Plug-In . SVG Version: 6.00 Build 0)  -->
<svg version="1.1" id="btn_x5F_close" xmlns="http://www.w3.org/2000/svg" xmlns:xlink="http://www.w3.org/1999/xlink" x="0px"
	 y="0px" viewBox="0 0 40 40" style="enable-background:new 0 0 40 40;" xml:space="preserve">
<defs>
	<filter id="Adobe_OpacityMaskFilter" filterUnits="userSpaceOnUse" x="0" y="0" width="40" height="40">
		<feColorMatrix  type="matrix" values="1 0 0 0 0  0 1 0 0 0  0 0 1 0 0  0 0 0 1 0"/>
	</filter>
</defs>
<mask maskUnits="userSpaceOnUse" x="0" y="0" width="40" height="40" id="mask-2_1_">
	<g style="filter:url(#Adobe_OpacityMaskFilter);">
		<path id="path-1_2_" style="fill-rule:evenodd;clip-rule:evenodd;fill:#FFFFFF;" d="M19.6,1.3c10.3,0,18.6,8.3,18.6,18.6
			s-8.3,18.6-18.6,18.6C9.3,38.6,1,30.2,1,19.9S9.3,1.3,19.6,1.3z"/>
	</g>
</mask>
<rect id="circle" style="mask:url(#mask-2_1_);fill-rule:evenodd;clip-rule:evenodd;fill:#50FFB2;" width="40" height="40"/>
<g id="x" transform="translate(13.913043, 13.913043)">
	<g id="Icon-plus" transform="translate(6.500000, 6.500000) rotate(-315.000000) translate(-6.500000, -6.500000) ">
		<g id="Mask_1_">
			<path id="path-3_1_" style="fill-rule:evenodd;clip-rule:evenodd;fill:#FFFFFF;" d="M7.2,0l0,5.8l5.8,0v1.3l-5.8,0l0,5.8H5.8
				l0-5.8L0,7.2l0-1.3l5.8,0l0-5.8L7.2,0z"/>
		</g>
		<defs>
			<filter id="Adobe_OpacityMaskFilter_1_" filterUnits="userSpaceOnUse">
				<feColorMatrix  type="matrix" values="1 0 0 0 0  0 1 0 0 0  0 0 1 0 0  0 0 0 1 0"/>
			</filter>
		</defs>
		<mask maskUnits="userSpaceOnUse" id="mask-4_1_">
			<g style="filter:url(#Adobe_OpacityMaskFilter_1_);">
				<path id="path-3_2_" style="fill-rule:evenodd;clip-rule:evenodd;fill:#FFFFFF;" d="M7.2,0l0,5.8l5.8,0v1.3l-5.8,0l0,5.8H5.8
					l0-5.8L0,7.2l0-1.3l5.8,0l0-5.8L7.2,0z"/>
			</g>
		</mask>
		
			<rect id="Color" x="0" y="0" transform="matrix(2.535182e-06 1 -1 2.535182e-06 13 -1.650999e-05)" style="mask:url(#mask-4_1_);fill-rule:evenodd;clip-rule:evenodd;" width="13" height="13"/>
	</g>
</g>
</svg>
