<?xml version="1.0" encoding="utf-8"?>
<!-- Generator: Adobe Illustrator 24.2.3, SVG Export Plug-In . SVG Version: 6.00 Build 0)  -->
<svg version="1.1" id="icon_x5F_arrow" xmlns="http://www.w3.org/2000/svg" xmlns:xlink="http://www.w3.org/1999/xlink" x="0px"
	 y="0px" viewBox="0 0 23 13" style="enable-background:new 0 0 23 13;" xml:space="preserve">
<path id="icon_x5F_arrow_1_" style="fill-rule:evenodd;clip-rule:evenodd;fill:#656565;" d="M0.2,6.1l5.4-5.9c0.3-0.3,0.6-0.2,0.9,0
	c0.2,0.2,0.2,0.6,0,0.9L2,5.9h20.4c0.3,0,0.6,0.3,0.6,0.6c0,0.3-0.3,0.6-0.6,0.6H2L6.5,12c0.2,0.2,0.2,0.6,0,0.9
	c-0.2,0.2-0.6,0.2-0.9,0L0.2,6.9C0,6.8,0,6.6,0,6.5C0,6.3,0.1,6.2,0.2,6.1z"/>
</svg>
